#!OML:ASF F:\VICON\USERDATA\INSTALL\rory3\rory3.ASF
:FULLY-SPECIFIED
:DEGREES
3054
root -2.68374 17.6896 1.52995 2.91352 1.86247 1.47126
lowerback -0.990868 0.350832 -3.44964
upperback -0.16287 0.499057 1.31366
thorax 0.347286 0.245495 3.29126
lowerneck -21.2426 1.66402 -9.01444
upperneck 26.7078 4.79607 2.7397
head 12.0521 1.5886 3.327
rclavicle 1.55301e-015 -1.55052e-014
rhumerus 4.12603 -31.97 -17.5327
rradius 38.6979
rwrist 32.446
rhand -26.1393 -8.97532
rfingers 7.12502
rthumb 0.411177 -38.9547
lclavicle 1.55301e-015 -1.55052e-014
lhumerus 5.0742 29.7458 19.2855
lradius 33.3218
lwrist -16.793
lhand -20.7447 27.6632
lfingers 7.12502
lthumb 5.62081 57.5687
rfemur -11.8533 1.79868 11.3334
rtibia 31.6402
rfoot -21.1441 -6.40032
rtoes 8.71641
lfemur -9.19144 -2.24652 -18.233
ltibia 26.9122
lfoot -16.2079 5.52369
ltoes -20.0285
3055
root -2.68204 17.6902 1.53888 3.02634 1.93922 1.59025
lowerback -1.01831 0.32113 -3.55373
upperback -0.225928 0.46094 1.30249
thorax 0.300341 0.228309 3.33793
lowerneck -20.9566 1.75294 -9.00134
upperneck 26.6943 4.88104 2.75786
head 11.9829 1.63332 3.33652
rclavicle 1.52816e-014 -8.34896e-015
rhumerus 3.4602 -32.4724 -16.4751
rradius 38.8397
rwrist 32.0973
rhand -26.0075 -9.03487
rfingers 7.12502
rthumb 0.538501 -39.0139
lclavicle 1.52816e-014 -8.34896e-015
lhumerus 4.41963 30.279 18.2804
lradius 33.0634
lwrist -17.6085
lhand -19.3871 26.4811
lfingers 7.12502
lthumb 6.93152 56.3476
rfemur -11.9026 1.73936 11.1943
rtibia 31.631
rfoot -21.1697 -6.46384
rtoes 8.38484
lfemur -9.25598 -2.242 -18.3707
ltibia 26.8709
lfoot -16.21 5.47128
ltoes -20.1078
3056
root -2.6812 17.6906 1.54632 3.09023 1.98265 1.55324
lowerback -1.03836 0.308211 -3.53202
upperback -0.194731 0.444198 1.36261
thorax 0.344716 0.218525 3.38786
lowerneck -20.7756 1.77899 -9.13664
upperneck 26.6216 4.91894 2.83603
head 11.9093 1.65172 3.38634
rclavicle -5.8393e-016 -1.98785e-015
rhumerus 2.7166 -32.9637 -15.3617
rradius 39.0059
rwrist 31.7508
rhand -25.8075 -9.03866
rfingers 7.12502
rthumb 0.731664 -39.0172
lclavicle -5.8393e-016 -1.98785e-015
lhumerus 3.37163 30.2483 17.0213
lradius 33.0947
lwrist -17.6648
lhand -18.053 25.5109
lfingers 7.12502
lthumb 8.21914 55.3311
rfemur -11.9123 1.83492 11.2424
rtibia 31.6091
rfoot -21.2652 -6.57628
rtoes 8.80135
lfemur -9.296 -2.30345 -18.3273
ltibia 26.8411
lfoot -16.2165 5.46712
ltoes -19.9263
3057
root -2.68196 17.6932 1.55358 3.19386 2.03977 1.55517
lowerback -1.04788 0.273614 -3.5849
upperback -0.168717 0.398934 1.41938
thorax 0.379838 0.194641 3.47596
lowerneck -20.678 1.80872 -9.18492
upperneck 26.566 4.96924 2.82145
head 11.8642 1.67043 3.3916
rclavicle -3.65267e-015 9.54166e-015
rhumerus 2.02268 -33.4211 -14.3182
rradius 39.0409
rwrist 31.549
rhand -25.6794 -9.07911
rfingers 7.12502
rthumb 0.85541 -39.0571
lclavicle -3.65267e-015 9.54166e-015
lhumerus 2.07056 29.6344 15.6309
lradius 33.2709
lwrist -16.5459
lhand -18.6307 25.7123
lfingers 7.12502
lthumb 7.66157 55.5535
rfemur -11.9741 1.9166 11.2556
rtibia 31.5795
rfoot -21.3891 -6.65493
rtoes 9.03612
lfemur -9.39745 -2.40066 -18.3161
ltibia 26.8323
lfoot -16.2161 5.48413
ltoes -19.8093
3058
root -2.68311 17.6932 1.56061 3.25249 2.14944 1.49001
lowerback -1.0314 0.236837 -3.54407
upperback -0.110126 0.349125 1.46367
thorax 0.435065 0.16761 3.49817
lowerneck -20.6503 1.85159 -9.14361
upperneck 26.5307 5.0106 2.82355
head 11.8425 1.69522 3.38964
rclavicle 9.24349e-015 -5.56597e-015
rhumerus 1.20852 -33.977 -13.331
rradius 39.0347
rwrist 31.4221
rhand -25.7628 -9.09643
rfingers 7.12502
rthumb 0.774836 -39.0748
lclavicle 9.24349e-015 -5.56597e-015
lhumerus 0.887748 29.2616 14.4156
lradius 33.3567
lwrist -15.8529
lhand -18.9377 25.5844
lfingers 7.12502
lthumb 7.36528 55.4362
rfemur -11.9618 1.9586 11.3451
rtibia 31.5321
rfoot -21.4774 -6.71881
rtoes 8.92069
lfemur -9.46762 -2.45069 -18.2256
ltibia 26.851
lfoot -16.218 5.43323
ltoes -19.7688
3059
root -2.68191 17.693 1.56907 3.35937 2.26195 1.41826
lowerback -1.07433 0.192784 -3.47999
upperback -0.0703819 0.290982 1.52173
thorax 0.505031 0.136474 3.52158
lowerneck -20.6496 1.89175 -9.18809
upperneck 26.5529 5.07497 2.85296
head 11.8439 1.72278 3.41821
rclavicle 1.62755e-014 -7.15625e-015
rhumerus 0.345516 -34.5309 -12.3524
rradius 39.0384
rwrist 31.5395
rhand -25.7552 -9.36004
rfingers 7.12502
rthumb 0.782165 -39.3383
lclavicle 1.62755e-014 -7.15625e-015
lhumerus -0.202164 29.4027 13.417
lradius 33.2682
lwrist -16.0375
lhand -18.8319 25.0874
lfingers 7.12502
lthumb 7.46743 54.9356
rfemur -11.9943 1.88844 11.4258
rtibia 31.4942
rfoot -21.4956 -6.7521
rtoes 8.96575
lfemur -9.58012 -2.48673 -18.1428
ltibia 26.8776
lfoot -16.2419 5.39279
ltoes -19.87
